<svg xmlns="http://www.w3.org/2000/svg" style="overflow:visible" viewBox="-240 -207 480 438" height="1752" width="1920"><path fill="none" d="M-240-207h480v438h-480z"/><svg y="-320" x="-250" viewBox="-250 -250 500 500" height="500" width="500" style="overflow:visible"><g style="fill:#fff;stroke-linejoin:round"><path style="fill:#fce2c4;fill-opacity:1;stroke:none;stroke-linecap:butt;stroke-linejoin:round" d="M0-108.099c-84.55 0-147.975 49.652-146.989 127.35.623 49.065 39.751 88.847 88.786 88.847 22.275 0 42.616-8.227 58.203-21.786 15.587 13.559 35.928 21.786 58.202 21.786 49.035 0 88.164-39.782 88.787-88.847.986-77.698-62.44-127.35-146.99-127.35z"/><path style="fill:#fff;fill-opacity:1;stroke:none;stroke-linecap:butt;stroke-linejoin:round" d="M119.422 33.648a10.001 10.001 0 0 0-9.373 5.842c-7.36 15.525-26.027 32.173-41.889 33.89a10.001 10.001 0 1 0 2.153 19.885c26.209-2.838 47.635-23.756 57.806-45.209a10.001 10.001 0 0 0-8.697-14.408z"/><path style="fill:#fce2c4;fill-opacity:1;stroke:none;stroke-linecap:butt;stroke-linejoin:round" d="M36 20.556a36 36 0 0 1-36 36 36 36 0 0 1-36-36 36 36 0 0 1 36-36 36 36 0 0 1 36 36z"/><path style="fill:#fff;fill-opacity:1;stroke:#444;stroke-width:10;stroke-linecap:round;stroke-linejoin:round;stroke-opacity:1" d="M0 85.007V20.556"/><path style="fill:none;stroke:#444;stroke-width:10;stroke-linecap:butt;stroke-linejoin:round;stroke-opacity:1" d="M0-108.099c-84.55 0-147.975 49.652-146.989 127.35.623 49.065 39.751 88.847 88.786 88.847 22.275 0 42.616-8.227 58.203-21.786 15.587 13.559 35.928 21.786 58.202 21.786 49.035 0 88.164-39.782 88.787-88.847.986-77.698-62.44-127.35-146.99-127.35z"/></g></svg><svg y="-120" x="-250" viewBox="-250 -250 500 500" height="500" width="500" style="overflow:visible"><g style="fill:#fff;stroke-linejoin:round"><path style="fill:#fff18a;fill-opacity:1;stroke:none;stroke-linecap:butt;stroke-linejoin:round" d="M0-78.587c-22.538 0-40.807 18.422-40.806 41.146.014 1.38.097 2.758.25 4.13A33.961 33.961 0 0 0-55.12-36.64C-73.997-36.64-89.3-21.21-89.3-2.173c0 19.035 15.304 34.466 34.182 34.466a33.933 33.933 0 0 0 12.192-2.31l19.41.033c11.89 15.344 36.038 15.282 47.033 0h19.411a33.945 33.945 0 0 0 12.192 2.277c18.878 0 34.182-15.431 34.182-34.466 0-19.035-15.304-34.466-34.182-34.466a33.955 33.955 0 0 0-14.515 3.302c.136-1.364.202-2.734.203-4.104 0-22.724-18.27-41.146-40.807-41.146z" transform="scale(-1)"/><path style="fill:none;stroke:#444;stroke-width:10;stroke-linecap:round;stroke-linejoin:round;stroke-opacity:1" d="M42.927 30.016a33.934 33.934 0 0 0 12.19 2.276c18.879 0 34.183-15.43 34.183-34.466 0-19.035-15.304-34.466-34.183-34.466a33.95 33.95 0 0 0-14.514 3.302 41.49 41.49 0 0 0 .205-4.103c0-22.725-18.27-41.147-40.808-41.147v0c-22.538 0-40.808 18.422-40.808 41.147.014 1.38.098 2.757.25 4.129a33.95 33.95 0 0 0-14.56-3.328C-73.995-36.64-89.3-21.21-89.3-2.174c0 19.035 15.304 34.466 34.183 34.466a33.92 33.92 0 0 0 12.19-2.308" transform="scale(-1)"/><path style="fill:#fff18a;fill-opacity:1;stroke:none;stroke-linecap:butt;stroke-linejoin:round" d="M-23.516 30.016h47.032v48.505h-47.032z" transform="scale(-1)"/><path style="fill:#fff;fill-opacity:1;stroke:#444;stroke-width:10;stroke-linecap:round;stroke-linejoin:round;stroke-opacity:1" d="M23.516 30.016v48.505M-23.516 78.52V30.017" transform="scale(-1)"/></g></svg></svg>