<svg height="1008" viewBox="-240 -126 480 252" width="1920" xmlns="http://www.w3.org/2000/svg"><path d="M-240-126h480v252h-480z" fill="none"/><svg height="500" overflow="visible" viewBox="-250 -250 500 500" width="500" x="-250" y="-250"><g fill="#fff" stroke-linejoin="round"><path d="M0-108.099c-84.55 0-147.975 49.652-146.989 127.35.623 49.065 39.751 88.847 88.786 88.847 22.275 0 42.616-8.227 58.203-21.786 15.587 13.559 35.928 21.786 58.202 21.786 49.035 0 88.164-39.782 88.787-88.847.986-77.698-62.44-127.35-146.99-127.35z" fill="#fce2c4"/><path d="M119.422 33.648a10.001 10.001 0 0 0-9.373 5.842c-7.36 15.525-26.027 32.173-41.889 33.89a10.001 10.001 0 1 0 2.153 19.885c26.209-2.838 47.635-23.756 57.806-45.209a10.001 10.001 0 0 0-8.697-14.408z"/><path d="M36 20.556a36 36 0 0 1-36 36 36 36 0 0 1-36-36 36 36 0 0 1 36-36 36 36 0 0 1 36 36z" fill="#fce2c4"/><g stroke="#444" stroke-width="10"><path d="M0 85.007V20.556" stroke-linecap="round"/><path d="M0-108.099c-84.55 0-147.975 49.652-146.989 127.35.623 49.065 39.751 88.847 88.786 88.847 22.275 0 42.616-8.227 58.203-21.786 15.587 13.559 35.928 21.786 58.202 21.786 49.035 0 88.164-39.782 88.787-88.847.986-77.698-62.44-127.35-146.99-127.35z" fill="none"/></g></g></svg></svg>